<?xml version="1.0" encoding="utf-8"?>
<!-- Generator: Adobe Illustrator 16.0.0, SVG Export Plug-In . SVG Version: 6.00 Build 0)  -->
<!DOCTYPE svg PUBLIC "-//W3C//DTD SVG 1.1//EN" "http://www.w3.org/Graphics/SVG/1.1/DTD/svg11.dtd">
<svg version="1.1" id="Layer_1" xmlns="http://www.w3.org/2000/svg" xmlns:xlink="http://www.w3.org/1999/xlink" x="0px" y="0px"
	 width="250px" height="400px" viewBox="0 0 250 400" enable-background="new 0 0 250 400" xml:space="preserve">
<path fill="#FFFFFF" d="M18,41.379L17.213,42L0,21.31L0.394,21L0,20.69L17.213,0L18,0.62L1.046,21L18,41.379z"/>
<path fill="#FFFFFF" d="M18,0.621L18.787,0L36,20.69L35.606,21L36,21.31L18.787,42L18,41.38L34.954,21L18,0.621z"/>
<path fill="#B8B6B7" d="M88.667,8l7.237,7.333L95.239,16L88,8.667l-7.333,7.238L80,15.239L87.334,8l-7.239-7.333L80.763,0L88,7.334
	l7.333-7.239L96,0.763L88.667,8z"/>
<path id="bag_1_" fill="#7F7F7F" d="M119.423,26L119.423,26h-18.81c-0.164,0-0.328-0.085-0.45-0.214S100,25.486,100,25.315
	l0.614-17.134c0-0.343,0.287-0.6,0.613-0.6h17.583c0.327,0,0.613,0.257,0.613,0.6l0.573,17.048c0,0.043,0,0.086,0,0.128
	C120.037,25.7,119.751,26,119.423,26z M101.268,24.716h17.542l-0.572-15.849H101.8L101.268,24.716z M105.152,11.394
	c-0.327,0-0.613,0.3-0.613,0.643c0,0.342,0.287,0.642,0.613,0.642c0.327,0,0.614-0.3,0.614-0.642
	C105.766,11.694,105.52,11.394,105.152,11.394z M114.843,11.394c-0.327,0-0.613,0.3-0.613,0.643c0,0.342,0.286,0.642,0.613,0.642
	c0.327,0,0.613-0.3,0.613-0.642C115.456,11.694,115.211,11.394,114.843,11.394z M115.456,5.697c0-3.17-2.453-5.697-5.438-5.697
	c-2.984,0-5.438,2.57-5.438,5.697c0,0.342,0.287,0.642,0.613,0.642c0.327,0,0.614-0.3,0.614-0.642c0-2.442,1.921-4.455,4.252-4.455
	c2.332,0,4.253,2.013,4.253,4.455c0,0.342,0.286,0.642,0.613,0.642C115.252,6.339,115.456,6.083,115.456,5.697z"/>
<path fill="#7F7F7F" d="M130,8.946L128.945,10L125,6.055L121.054,10L120,8.946L123.946,5L120,1.054L121.054,0L125,3.946L128.945,0
	L130,1.054L126.055,5L130,8.946z"/>
<path fill="#7F7F7F" d="M138,7.156L137.156,8L134,4.843L130.844,8L130,7.156L133.156,4L130,0.844L130.844,0L134,3.157L137.156,0
	L138,0.844L134.843,4L138,7.156z"/>
<path fill="#E5E5E5" d="M140,5.294l5.195-4.588L145.994,0h0.013L152,5.294L151.189,6l-5.195-4.588L140.801,6L140,5.294z"/>
<path fill="#E5E5E5" d="M152,6.706l-5.195,4.588L146.006,12h-0.013L140,6.706L140.811,6l5.195,4.588L151.199,6L152,6.706z"/>
<path id="bag_3_" fill="#7F7F7F" d="M60.119,260h-0.017H1.877c-0.515,0-0.999-0.221-1.354-0.607
	c-0.354-0.375-0.545-0.892-0.521-1.424l1.88-52.729c0.036-1.053,0.866-1.885,1.874-1.885h54.479c1.009,0,1.841,0.832,1.878,1.885
	l1.854,52.453c0.021,0.121,0.025,0.229,0.025,0.349C61.997,259.12,61.163,260,60.119,260z M3.827,256.084h54.33l-1.742-48.822H5.563
	L3.827,256.084z M15.961,215.074c-1.034,0-1.877,0.871-1.877,1.955c0,1.08,0.843,1.949,1.877,1.949c1.038,0,1.877-0.875,1.877-1.949
	C17.838,215.945,16.999,215.074,15.961,215.074z M46.017,215.074c-1.035,0-1.883,0.871-1.883,1.955c0,1.08,0.848,1.949,1.883,1.949
	c1.035,0,1.873-0.875,1.873-1.949C47.897,215.945,47.052,215.074,46.017,215.074z M47.897,197.578
	c0-9.692-7.585-17.578-16.909-17.578c-9.317,0-16.904,7.886-16.904,17.578c0,1.079,0.843,1.955,1.884,1.955
	c1.031,0,1.87-0.879,1.87-1.955c0-7.539,5.9-13.669,13.15-13.669c7.254,0,13.145,6.133,13.145,13.669
	c0,1.079,0.849,1.955,1.884,1.955C47.052,199.533,47.897,198.654,47.897,197.578z"/>
<path id="path-1_2_" fill="#7F7F7F" d="M179.719,19.702C179.57,19.9,179.32,20,179.072,20c-0.249,0-0.497-0.101-0.672-0.273
	l-4.705-4.702c-1.444,1.151-3.248,1.87-5.24,1.87c-4.676,0-8.454-3.802-8.454-8.447c0-4.645,3.804-8.448,8.453-8.448
	c4.646,0,8.454,3.802,8.454,8.447c0,1.984-0.719,3.791-1.872,5.236l4.683,4.676C180.092,18.733,180.092,19.328,179.719,19.702z
	 M168.454,1.888c-3.604,0-6.54,2.956-6.54,6.559c0,3.604,2.936,6.533,6.54,6.533c1.794,0,3.43-0.728,4.618-1.903
	c0.003-0.003,0.003-0.006,0.006-0.008c0.005-0.006,0.011-0.006,0.018-0.011c1.188-1.183,1.924-2.813,1.924-4.611
	C175.02,4.844,172.061,1.888,168.454,1.888z"/>
<path fill="#C3C3C3" d="M208.676,21.5l-5.352-4.762l-0.824-0.733v-0.011l6.176-5.494l0.824,0.743l-5.354,4.762l5.354,4.762
	L208.676,21.5z"/>
<path fill="#C3C3C3" d="M235.324,10.5l5.352,4.762l0.824,0.733v0.011l-6.176,5.494l-0.824-0.743l5.354-4.762l-5.354-4.762
	L235.324,10.5z"/>
<path fill="#FFFFFF" d="M208.676,201.5l-5.352-4.762l-0.824-0.733v-0.011l6.176-5.494l0.824,0.743l-5.354,4.762l5.354,4.763
	L208.676,201.5z"/>
<path fill="#FFFFFF" d="M235.324,190.5l5.352,4.762l0.824,0.733v0.011l-6.176,5.494l-0.824-0.743l5.354-4.762l-5.354-4.762
	L235.324,190.5z"/>
</svg>
