<?xml version="1.0" encoding="utf-8"?>
<!-- Generator: Adobe Illustrator 21.1.0, SVG Export Plug-In . SVG Version: 6.00 Build 0)  -->
<svg version="1.1" xmlns="http://www.w3.org/2000/svg" xmlns:xlink="http://www.w3.org/1999/xlink" x="0px" y="0px"
	 viewBox="0 0 202.6 103.1" style="enable-background:new 0 0 202.6 103.1;" xml:space="preserve">
<style type="text/css">
	.st0{display:none;}
	.st1{display:inline;}
	.st2{fill:#FFFFFF;}
	.st3{fill:#FFDD06;}
</style>
<g id="Layer_2" class="st0">
	<rect class="st1" width="202.6" height="103.1"/>
</g>
<g id="Layer_1">
	<path class="st2" d="M102.7,103.1H50V50.3h52.8V103.1z M52.8,100.2h47v-47h-47V100.2z"/>
	<path class="st2" d="M52.8,103.1H0V50.3h52.8V103.1z M2.9,100.2h47.1v-47H2.9V100.2z"/>
	<path class="st2" d="M152.6,103.1H99.8V50.3h52.8V103.1z M102.7,100.2h47v-47h-47V100.2z"/>
	<path class="st2" d="M202.6,103.1h-52.8V50.3h52.8V103.1z M152.6,100.2h47.1v-47h-47.1V100.2z"/>
	<path class="st2" d="M66.8,15.2c0-0.4,0.3-0.7,0.7-0.7h8.7c7.1,0,12.9,5.8,12.9,12.9c0,7.2-5.8,12.9-12.9,12.9h-8.7
		c-0.4,0-0.7-0.3-0.7-0.7V15.2z M75.7,35.8c4.8,0,8.3-3.6,8.3-8.4c0-4.8-3.5-8.4-8.3-8.4h-4.2v16.8H75.7z"/>
	<path class="st2" d="M102.7,52.8H50V0h52.8V52.8z M52.8,49.9h47v-47h-47V49.9z"/>
	<path class="st2" d="M52.8,52.8H0V0h52.8V52.8z M2.9,49.9h47.1v-47H2.9V49.9z"/>
	<path class="st2" d="M18.6,15.4c0-0.4,0.3-0.7,0.7-0.7h15c0.4,0,0.7,0.3,0.7,0.7v3c0,0.4-0.3,0.7-0.7,0.7H23.4v6h9.1
		c0.4,0,0.7,0.3,0.7,0.7v3.1c0,0.4-0.3,0.7-0.7,0.7h-9.1v6.5h10.9c0.4,0,0.7,0.3,0.7,0.7v3c0,0.4-0.3,0.7-0.7,0.7h-15
		c-0.4,0-0.7-0.3-0.7-0.7V15.4z"/>
	<path class="st2" d="M152.6,52.8H99.8V0h52.8V52.8z M102.7,49.9h47v-47h-47V49.9z"/>
	<path class="st2" d="M124.5,15.2c0-0.4,0.3-0.7,0.7-0.7h3.4c0.4,0,0.7,0.3,0.7,0.7v24.4c0,0.4-0.3,0.7-0.7,0.7h-3.4
		c-0.4,0-0.7-0.3-0.7-0.7V15.2z"/>
	<path class="st2" d="M202.6,52.8h-52.8V0h52.8V52.8z M152.6,49.9h47.1v-47h-47.1V49.9z"/>
	<path class="st2" d="M173.8,18.7h-5.6c-0.4,0-0.7-0.3-0.7-0.7v-3c0-0.4,0.3-0.7,0.7-0.7h16.1c0.4,0,0.7,0.3,0.7,0.7v3
		c0,0.4-0.3,0.7-0.7,0.7h-5.6v20.7c0,0.4-0.3,0.7-0.7,0.7h-3.4c-0.4,0-0.7-0.3-0.7-0.7V18.7z"/>
	<path class="st3" d="M188.7,34.4c1.7,0,3.1,1.4,3.1,3.1c0,1.7-1.4,3-3.1,3c-1.7,0-3-1.4-3-3C185.7,35.8,187.1,34.4,188.7,34.4"/>
	<g>
		<path class="st2" d="M26.6,72.3L26.6,72.3l-4.4,18.2h-5.5L10,64.4h5.6l4.1,19.2h0.1l4.1-19.2h5.6l4.3,19.2h0.1l3.8-19.2h5.5
			l-6.7,26.2h-5.5L26.6,72.3z"/>
	</g>
	<g>
		<path class="st2" d="M126.4,80.2h-3.1v10.3h-5.2V64.4h9.8c1.4,0,2.6,0.2,3.7,0.6c1.1,0.4,2,1,2.7,1.7c0.7,0.7,1.3,1.5,1.7,2.5
			c0.4,1,0.6,2,0.6,3.1c0,0.7-0.1,1.4-0.3,2.2c-0.2,0.8-0.5,1.5-0.9,2.2c-0.4,0.7-0.9,1.3-1.5,1.8c-0.6,0.5-1.3,0.9-2.2,1.2l6.1,11
			h-6.2L126.4,80.2z M126.8,76c0.9,0,1.6-0.1,2.2-0.3c0.6-0.2,1-0.5,1.4-0.8c0.3-0.3,0.6-0.7,0.7-1.1c0.1-0.4,0.2-0.9,0.2-1.3
			c0-0.5-0.1-0.9-0.2-1.3c-0.1-0.4-0.4-0.8-0.7-1.1c-0.3-0.3-0.8-0.6-1.4-0.8c-0.6-0.2-1.4-0.3-2.3-0.3h-3.3V76H126.8z"/>
	</g>
	<g>
		<path class="st2" d="M180,64.4h6.2l-9,12.6l9.2,13.6h-6.5l-8.3-12.8h-0.1v12.8h-5.2V64.4h5.2v12.3h0.1L180,64.4z"/>
	</g>
	<g>
		<path class="st2" d="M63.9,77.5c0-1.8,0.3-3.5,0.9-5.1c0.6-1.6,1.4-3.1,2.5-4.3c1.1-1.3,2.4-2.3,4-3c1.6-0.8,3.4-1.1,5.4-1.1
			c2,0,3.8,0.4,5.4,1.1c1.6,0.8,2.9,1.8,4,3c1.1,1.3,1.9,2.7,2.5,4.3c0.6,1.6,0.9,3.3,0.9,5.1c0,1.8-0.3,3.5-0.9,5.1
			c-0.6,1.6-1.4,3.1-2.5,4.3c-1.1,1.3-2.4,2.3-4,3c-1.6,0.8-3.4,1.1-5.4,1.1c-2,0-3.8-0.4-5.4-1.1c-1.6-0.8-2.9-1.8-4-3
			c-1.1-1.3-1.9-2.7-2.5-4.3C64.2,80.9,63.9,79.2,63.9,77.5z M83.9,77.5c0-1.2-0.2-2.3-0.5-3.4c-0.3-1.1-0.8-2-1.4-2.8
			c-0.6-0.8-1.4-1.5-2.3-2c-0.9-0.5-2-0.7-3.2-0.7c-1.2,0-2.3,0.2-3.2,0.7c-0.9,0.5-1.7,1.1-2.3,2c-0.6,0.8-1.1,1.8-1.4,2.8
			c-0.3,1.1-0.5,2.2-0.5,3.4c0,1.2,0.2,2.3,0.5,3.4c0.3,1.1,0.8,2,1.4,2.8c0.6,0.8,1.4,1.5,2.3,2c0.9,0.5,2,0.7,3.2,0.7
			c1.2,0,2.3-0.2,3.2-0.7c0.9-0.5,1.7-1.1,2.3-2c0.6-0.8,1.1-1.8,1.4-2.8C83.8,79.8,83.9,78.6,83.9,77.5z"/>
	</g>
</g>
</svg>
