<?xml version="1.0" encoding="utf-8"?>
<!-- Generator: Adobe Illustrator 16.0.0, SVG Export Plug-In . SVG Version: 6.00 Build 0)  -->
<!DOCTYPE svg PUBLIC "-//W3C//DTD SVG 1.1//EN" "http://www.w3.org/Graphics/SVG/1.1/DTD/svg11.dtd">
<svg version="1.1" id="Layer_1" xmlns="http://www.w3.org/2000/svg" xmlns:xlink="http://www.w3.org/1999/xlink" x="0px" y="0px"
	 width="42px" height="60px" viewBox="0 0 42 60" enable-background="new 0 0 42 60" xml:space="preserve">
<path fill="#FFFFFF" d="M20.969,0C9.372,0,0,9.675,0,21.491c0,2.132,0.328,4.269,0.917,6.206
	c2.425,11.75,17.036,29.435,19.07,31.838C20.247,59.868,20.574,60,20.969,60c0.063,0,0.063,0,0.131,0
	c0.327-0.066,0.655-0.204,0.917-0.537l0.064-0.13c4.461-5.476,16.775-21.161,19.008-31.771c0.584-1.934,0.91-4.07,0.91-6.206
	C41.938,9.675,32.502,0,20.969,0z M20.969,30.166c-4.718,0-8.518-3.871-8.518-8.675c0-1.605,0.458-3.14,1.18-4.472
	c0.786-1.336,1.835-2.405,3.143-3.139c1.248-0.732,2.624-1.134,4.131-1.134c1.507,0,2.949,0.402,4.187,1.134
	c1.315,0.734,2.434,1.803,3.151,3.139c0.788,1.268,1.18,2.803,1.18,4.403C29.486,26.295,25.689,30.166,20.969,30.166z"/>
</svg>
