<?xml version="1.0" encoding="utf-8"?>
<!-- Generator: Adobe Illustrator 21.1.0, SVG Export Plug-In . SVG Version: 6.00 Build 0)  -->
<svg version="1.1" id="Layer_1" xmlns="http://www.w3.org/2000/svg" xmlns:xlink="http://www.w3.org/1999/xlink" x="0px" y="0px"
	 viewBox="0 0 100 100.7" style="enable-background:new 0 0 100 100.7;" xml:space="preserve">
<title>Artboard 9</title>
<path d="M50,23.2c5.5,0,9.9-4.4,9.9-9.9c0-5.5-4.4-9.9-9.9-9.9s-9.9,4.4-9.9,9.9C40.1,18.7,44.5,23.2,50,23.2z M49.3,8.4
	c2.3,0,4.2,1.9,4.2,4.2s-1.9,4.2-4.2,4.2s-4.2-1.9-4.2-4.2C45.1,10.3,47,8.4,49.3,8.4z M41.8,24.8h2.3c0.7,0,1.3,0.3,1.8,0.7
	l4.1,4.1l4.1-4.1c0.5-0.5,1.1-0.7,1.8-0.7h2.3c5,0,9,4,9,9v6.4c0,1.4-1.1,2.5-2.5,2.5c-1.4,0-2.5-1.1-2.5-2.5v-6.4c0-2.2-1.8-4-4-4
	h-1.3l-4.4,4.4c-1.4,1.4-3.6,1.4-5,0l-4.4-4.4h-1.3c-2.2,0-4,1.8-4,4v6.4c0,1.4-1.1,2.5-2.5,2.5s-2.5-1.1-2.5-2.5v-6.4
	C32.8,28.9,36.8,24.8,41.8,24.8C41.8,24.8,41.8,24.8,41.8,24.8z M50,76.4c5.5,0,10-4.5,10-10s-4.5-10-10-10s-10,4.5-10,10
	S44.5,76.4,50,76.4z M50,61.4c2.8,0,5,2.2,5,5c0,2.8-2.2,5-5,5s-5-2.2-5-5C45,63.7,47.2,61.4,50,61.4C50,61.4,50,61.4,50,61.4
	L50,61.4z M80.3,88.4c0.3,1.3-0.5,2.7-1.9,3c-1.3,0.3-2.7-0.5-3-1.9l-9.2-39.2H33.8l-9.2,39.2c-0.3,1.3-1.7,2.2-3,1.9
	s-2.2-1.7-1.9-3l0,0L28.9,49c0.5-2.2,2.5-3.7,4.7-3.7h32.8c2.2,0,4.2,1.5,4.7,3.7L80.3,88.4z M42.2,78.4h15.3
	c6.2,0,11.2,5,11.2,11.1v4.5c0,1.4-1.1,2.5-2.5,2.5s-2.5-1.1-2.5-2.5v-4.5c0-3.4-2.8-6.2-6.2-6.2H42.4c-3.4,0-6.1,2.8-6.1,6.2v4.5
	c0,1.4-1.1,2.5-2.5,2.5s-2.5-1.1-2.5-2.5v-4.5C31.4,83.5,36.2,78.6,42.2,78.4L42.2,78.4z M76.8,41.3c0,5.3,4.3,9.5,9.5,9.5
	s9.5-4.3,9.5-9.5s-4.3-9.5-9.5-9.5C81.1,31.8,76.8,36.1,76.8,41.3z M90.8,41.3c0,2.5-2,4.5-4.5,4.5c-2.5,0-4.5-2-4.5-4.5
	c0-2.5,2-4.5,4.5-4.5C88.8,36.8,90.8,38.8,90.8,41.3C90.8,41.3,90.8,41.3,90.8,41.3L90.8,41.3z M94.7,56.9c2.4,2.3,3.8,5.5,3.8,8.8
	v6.2c0,2.4-2,4.4-4.4,4.4H82.7c-1.4,0-2.5-1.1-2.5-2.5s1.1-2.5,2.5-2.5h10.8v-5.5c0-4-3.2-7.2-7.2-7.2c-0.2,0-0.3,0-0.5,0
	c-1.8,0.1-3.5,1-4.7,2.4c-0.9,1-2.5,1.1-3.5,0.1c-1-0.9-1.1-2.5-0.2-3.5c2.1-2.4,5-3.8,8.2-4C88.9,53.4,92.2,54.6,94.7,56.9
	L94.7,56.9z M13.7,50.8c5.3,0,9.5-4.3,9.5-9.5s-4.3-9.5-9.5-9.5s-9.5,4.3-9.5,9.5l0,0C4.2,46.6,8.4,50.8,13.7,50.8z M13.7,36.8
	c2.5,0,4.5,2,4.5,4.5c0,2.5-2,4.5-4.5,4.5s-4.5-2-4.5-4.5l0,0C9.1,38.9,11.2,36.8,13.7,36.8C13.7,36.8,13.7,36.8,13.7,36.8
	L13.7,36.8z M1.5,71.9v-6.2c0-3.4,1.4-6.6,3.8-8.8c2.4-2.3,5.7-3.5,9.1-3.3c3.1,0.2,6.1,1.6,8.1,4c0.9,1,0.8,2.6-0.2,3.5
	c-1,0.9-2.6,0.8-3.5-0.2c-1.2-1.4-2.9-2.2-4.7-2.3c-3.9-0.2-7.3,2.7-7.6,6.7c0,0.1,0,0.3,0,0.4v5.5h10.8c1.4,0,2.5,1.1,2.5,2.5
	s-1.1,2.5-2.5,2.5H5.9C3.5,76.3,1.5,74.4,1.5,71.9z"/>
</svg>
